<svg width="72" height="14" viewBox="0 0 72 14" fill="none" xmlns="http://www.w3.org/2000/svg"><path d="M0 13.881V0h5.277c3.214 0 5.078 1.348 5.078 3.669 0 1.745-1.031 2.736-2.618 3.073 1.845.238 3.114 1.21 3.114 3.193 0 2.42-1.904 3.946-5.316 3.946zM5.356 2.34h-2.38v3.37h2.38c1.27 0 2.024-.654 2.024-1.686 0-1.03-.734-1.685-2.024-1.685m.199 5.671h-2.58v3.51h2.58c1.428 0 2.241-.654 2.241-1.725 0-1.13-.833-1.785-2.241-1.785M17.32 14c-3.393 0-5.436-2.043-5.436-5.195 0-3.173 2.083-5.236 5.237-5.236 3.055 0 5.119 1.904 5.158 4.898 0 .298-.02.635-.08.952H14.8v.14c.06 1.447.992 2.32 2.4 2.32 1.131 0 1.925-.497 2.163-1.448h2.758C21.803 12.414 20.038 14 17.32 14m-2.46-6.405h4.602c-.198-1.25-1.051-1.943-2.32-1.943-1.21 0-2.123.733-2.282 1.943m7.58-6.009V0h10.732v1.586h-4.504v12.295h-1.726V1.586zm18.921 10.808h.516v1.487h-.893c-1.349 0-1.805-.575-1.825-1.567-.634.913-1.646 1.686-3.392 1.686-2.222 0-3.73-1.11-3.73-2.955 0-2.022 1.409-3.153 4.067-3.153h2.976v-.694c0-1.308-.932-2.102-2.52-2.102-1.428 0-2.38.675-2.578 1.706h-1.627c.238-1.983 1.845-3.153 4.285-3.153 2.579 0 4.067 1.289 4.067 3.648v4.423c0 .535.198.674.654.674M39.08 9.756v-.495h-3.134c-1.449 0-2.262.535-2.262 1.685 0 .992.853 1.666 2.202 1.666 2.024 0 3.194-1.17 3.194-2.856m3.254 4.125V0h1.627v13.881zm7.724.119c-3.035 0-5.02-2.082-5.02-5.176 0-3.073 1.945-5.175 4.802-5.175s4.721 1.804 4.8 4.799c0 .218-.02.456-.04.694h-7.855v.138c.06 1.924 1.27 3.272 3.194 3.272 1.428 0 2.54-.753 2.876-2.062h1.647c-.397 2.023-2.063 3.51-4.404 3.51m-3.214-6.207h6.05c-.158-1.745-1.348-2.717-3.034-2.717-1.488 0-2.857 1.071-3.016 2.717m13.819-4.144c2.281 0 4.087 1.249 4.087 4.6v5.632h-1.627V8.348c0-2.102-.972-3.212-2.738-3.212-1.904 0-3.055 1.408-3.055 3.688v5.057h-1.627V3.768h1.409l.218 1.368c.595-.773 1.627-1.487 3.333-1.487m6.121 7.595V5.255h-1.825V3.768h1.825V.932h1.626v2.836h2.62v1.487h-2.62v5.969c0 .852.298 1.17 1.171 1.17h1.607v1.487h-1.766c-1.944 0-2.638-.853-2.638-2.637" fill="#222"/></svg>